<svg width="40" height="50" viewBox="0 0 40 50" fill="none" xmlns="http://www.w3.org/2000/svg">
<path d="M20 0C8.954 0 0 8.954 0 20C0 31.046 8.954 40 20 40C31.046 40 40 31.046 40 20C40 8.954 31.046 0 20 0Z" fill="#A32020"/>
<path d="M20 40L14 50L20 45L26 50L20 40Z" fill="#A32020"/>
<path d="M30 14.5V23C30 24.1 29.1 25 28 25H12C10.9 25 10 24.1 10 23V14.5C10 13.12 11.12 12 12.5 12H27.5C28.88 12 30 13.12 30 14.5ZM26 15H14V22H26V15ZM14 26C12.9 26 12 26.9 12 28C12 29.1 12.9 30 14 30C15.1 30 16 29.1 16 28C16 26.9 15.1 26 14 26ZM26 26C24.9 26 24 26.9 24 28C24 29.1 24.9 30 26 30C27.1 30 28 29.1 28 28C28 26.9 27.1 26 26 26Z" fill="white"/>
</svg>
